<?xml version="1.0"?>
<svg version="1.1" xmlns="http://www.w3.org/2000/svg" width="400px" height="200px" style="border: dashed 2px #aaa"><path fill="#9e004f" d="M135.65,110.385l0.62,3.255s1.395,0.775,3.41,0.775c2.263,0,4.743-1.116,4.743-3.317c0-4.774-11.191-2.79-11.191-10.199c0-4.34,3.472-6.169,7.347-6.169c2.945,0,6.541,1.24,6.541,1.24l-0.155,5.27l-2.015,0l-1.054-3.317s-1.581-0.558-3.286-0.558c-2.79,0-4.123,1.457-4.123,3.007c0,4.712,11.16,2.914,11.16,9.889c0,4.65-3.751,6.789-8.091,6.789c-3.255,0-6.386-1.24-6.386-1.24l0-5.425l2.48,0z M158.1436,92.87l0,9.362c0.961-0.806,3.131-2.232,5.425-2.232c3.41,0,4.96,2.17,4.96,5.58l0,8.68l2.325,0.775l0,1.705l-7.44,0l0-1.705l2.015-0.744l0-8.401c0-2.17-0.682-3.255-2.697-3.255c-2.635,0-4.588,2.48-4.588,2.48l0,9.145l2.015,0.775l0,1.705l-7.75,0l0-1.705l2.635-0.775l0-18.91l-2.635-0.62l0-1.705z M183.0552,100c4.65,0,7.285,3.255,7.285,8.215c0,5.27-3.1,8.835-7.75,8.835s-7.44-2.79-7.44-8.37c0-5.27,3.255-8.68,7.905-8.68z M182.9002,102.48c-3.1,0-4.495,2.015-4.495,6.045c0,3.72,1.24,6.045,4.34,6.045s4.34-2.17,4.34-6.2c0-3.41-1.085-5.89-4.185-5.89z M199.7518,100.31l0.248,1.736c0.93-0.868,2.573-2.046,4.712-2.046c4.495,0,6.665,3.255,6.665,8.06c0,5.27-2.635,8.99-8.37,8.99c-1.023,0-1.953-0.186-2.79-0.434l0,4.929l3.255,0.62l0,1.705l-8.835,0l0-1.705l2.48-0.62l0-18.755l-2.635-0.62l0-1.705z M200.2168,104.65l0,9.3s0.93,0.62,3.255,0.62c3.596,0,4.65-2.79,4.65-6.2s-1.24-5.89-4.03-5.89s-3.875,2.17-3.875,2.17z M219.5484,110.385l0.62,3.255s1.395,0.775,3.41,0.775c2.263,0,4.743-1.116,4.743-3.317c0-4.774-11.191-2.79-11.191-10.199c0-4.34,3.472-6.169,7.347-6.169c2.945,0,6.541,1.24,6.541,1.24l-0.155,5.27l-2.015,0l-1.054-3.317s-1.581-0.558-3.286-0.558c-2.79,0-4.123,1.457-4.123,3.007c0,4.712,11.16,2.914,11.16,9.889c0,4.65-3.751,6.789-8.091,6.789c-3.255,0-6.386-1.24-6.386-1.24l0-5.425l2.48,0z M246.847,100.465l0,2.325l-4.495,0l0,9.951c0,1.426,0.682,1.891,1.55,1.891c0.744,0,1.612-0.341,2.418-0.775l0.837,1.643c-1.395,1.023-2.79,1.55-4.34,1.55c-1.86,0-3.565-1.023-3.565-4.495l0-9.765l-3.1,0l0-2.015l3.1-0.31l0-3.906l3.1-0.62l0,4.526l4.495,0z M259.0486,100c4.65,0,7.285,3.255,7.285,8.215c0,5.27-3.1,8.835-7.75,8.835s-7.44-2.79-7.44-8.37c0-5.27,3.255-8.68,7.905-8.68z M258.8936,102.48c-3.1,0-4.495,2.015-4.495,6.045c0,3.72,1.24,6.045,4.34,6.045s4.34-2.17,4.34-6.2c0-3.41-1.085-5.89-4.185-5.89z M276.0552,100.31l0.279,2.263c0.775-0.868,2.573-2.573,4.681-2.573c1.55,0,2.79,0.465,2.79,0.465l-0.155,4.495l-2.015,0l-0.465-2.325c-2.325,0-3.813,1.519-4.495,2.418l0,9.207l3.1,0.775l0,1.705l-8.835,0l0-1.705l2.635-0.775l0-11.47l-2.635-0.62l0-1.705z M289.4968,95.195c0-1.395,0.93-2.17,2.015-2.17c1.24,0,2.015,0.62,2.015,2.17c0,1.395-1.085,2.17-2.015,2.17c-1.24,0-2.015-0.775-2.015-2.17z M295.5418,115.035l0,1.705l-8.06,0l0-1.705l2.635-0.775l0-11.47l-2.635-0.62l0-1.705l5.735-0.155l0,13.95z M313.9434,108.99l-10.695,0c0,3.41,1.829,5.58,4.495,5.58c3.1,0,5.208-1.705,5.208-1.705l1.085,1.612s-2.883,2.573-6.603,2.573c-4.96,0-7.44-3.255-7.44-8.37c0-4.96,3.1-8.68,7.595-8.68s6.51,2.635,6.51,7.285c0,0.775-0.155,1.643-0.155,1.705z M303.3724,106.665l7.44,0c0-2.325-0.899-4.247-3.379-4.247s-3.875,1.922-4.061,4.247z M321.216,111.78l0.341,2.666s0.93,0.279,2.604,0.279c1.86,0,3.503-0.527,3.503-2.449c0-3.348-8.649-1.798-8.649-7.44c0-3.224,2.48-4.836,5.673-4.836c2.449,0,5.301,0.93,5.301,0.93l-0.093,4.185l-2.015,0l-0.496-2.418s-0.961-0.372-2.511-0.372c-1.581,0-2.759,0.496-2.759,2.077c0,3.317,8.649,2.046,8.649,7.347c0,3.565-3.1,5.301-6.82,5.301c-2.852,0-4.898-0.682-4.898-0.682l0-4.588l2.17,0z"/><path fill="#" d=""/></svg>
