<svg xmlns="http://www.w3.org/2000/svg"
 width="1080.000000pt" height="1080.000000pt" viewBox="0 0 1080.000000 1080.000000"
 preserveAspectRatio="xMidYMid meet">

<g transform="translate(0.000000,1080.000000) scale(0.100000,-0.100000)"
fill="#000000" stroke="none">
<path d="M3064 5806 c-18 -14 -19 -30 -19 -381 l0 -367 24 -19 c31 -25 101
-25 132 0 23 18 24 26 27 160 3 137 4 141 29 161 33 26 93 26 124 1 23 -18 24
-27 29 -166 6 -169 9 -175 92 -175 81 0 88 14 88 178 0 163 -13 219 -66 280
-78 92 -202 115 -271 50 l-23 -21 0 121 c0 118 -9 169 -33 184 -21 13 -112 9
-133 -6z"/>
<path d="M7096 5804 c-20 -19 -22 -113 -3 -138 9 -12 31 -20 65 -24 44 -4 54
-1 76 21 34 34 37 106 6 137 -26 26 -120 28 -144 4z"/>
<path d="M2559 5762 c-42 -21 -62 -40 -87 -82 -31 -51 -33 -60 -30 -126 6
-125 61 -178 235 -225 90 -24 113 -41 113 -80 0 -53 -78 -87 -133 -57 -12 6
-42 28 -66 50 -58 51 -88 50 -135 -3 -40 -43 -41 -61 -7 -109 54 -76 170 -126
275 -118 163 14 271 134 252 281 -16 114 -65 155 -230 192 -84 19 -126 45
-126 79 0 58 94 77 154 31 57 -43 109 -28 145 42 18 35 13 57 -17 86 -45 43
-120 67 -211 67 -67 0 -87 -4 -132 -28z"/>
<path d="M5045 5777 c-90 -41 -140 -119 -139 -217 0 -72 15 -109 61 -152 32
-31 126 -72 188 -83 87 -16 118 -50 93 -102 -15 -31 -68 -50 -109 -40 -13 3
-48 27 -77 52 -65 55 -92 57 -138 11 -41 -41 -43 -67 -8 -118 122 -176 454
-143 512 51 20 64 15 142 -11 192 -30 56 -77 83 -202 114 -53 13 -103 29 -111
36 -21 18 -18 76 5 89 35 18 95 12 131 -15 61 -45 117 -24 150 56 11 27 11 34
-7 57 -11 15 -42 38 -69 52 -40 21 -65 25 -144 28 -64 1 -105 -2 -125 -11z"/>
<path d="M5631 5750 c-18 -5 -37 -14 -42 -22 -5 -7 -9 -48 -9 -92 0 -77 0 -78
-24 -72 -16 4 -32 -1 -47 -13 -19 -15 -23 -28 -23 -73 -1 -66 14 -88 60 -88
l34 0 0 -102 c0 -118 11 -165 46 -208 30 -35 103 -60 176 -60 63 0 88 23 88
83 0 60 -22 87 -69 87 -54 0 -61 12 -61 111 l0 87 61 -1 c53 -2 63 1 80 22 25
31 25 101 0 132 -17 21 -28 24 -80 23 l-61 -1 0 72 c0 55 -4 78 -17 93 -21 24
-65 32 -112 22z"/>
<path d="M3857 5566 c-172 -64 -245 -237 -166 -395 128 -255 511 -185 536 99
15 162 -102 297 -266 307 -41 2 -80 -2 -104 -11z m143 -188 c69 -47 56 -147
-22 -176 -33 -13 -41 -12 -75 4 -75 37 -82 125 -14 171 43 29 69 29 111 1z"/>
<path d="M6145 5560 c-139 -55 -212 -202 -170 -346 23 -82 107 -165 191 -190
134 -39 272 21 341 149 27 49 25 199 -4 252 -68 126 -228 187 -358 135z m179
-201 c24 -27 27 -38 23 -71 -6 -47 -21 -67 -65 -85 -41 -17 -94 -3 -117 30
-17 25 -20 89 -4 118 14 28 68 50 104 44 17 -3 43 -19 59 -36z"/>
<path d="M7535 5569 c-82 -20 -166 -98 -193 -178 -17 -48 -15 -149 4 -204 39
-115 139 -177 285 -177 180 0 247 53 188 149 -18 30 -23 33 -57 27 -139 -24
-211 -16 -233 25 -9 18 -4 19 113 20 148 0 187 11 210 59 45 90 -3 210 -106
262 -47 24 -149 32 -211 17z m140 -175 c9 -9 15 -26 13 -38 -3 -19 -10 -21
-85 -24 -93 -3 -100 3 -54 49 34 34 98 40 126 13z"/>
<path d="M8068 5567 c-92 -26 -128 -71 -128 -160 0 -101 63 -163 199 -196 82
-20 91 -44 19 -49 -35 -2 -60 4 -99 23 -31 16 -60 24 -73 21 -23 -6 -66 -71
-66 -99 0 -51 140 -103 252 -94 137 12 203 69 203 177 0 103 -47 149 -176 176
-75 15 -107 33 -95 53 10 16 96 14 145 -4 41 -14 43 -14 66 9 27 27 40 67 31
91 -17 46 -188 77 -278 52z"/>
<path d="M4330 5558 l-25 -14 -3 -360 c-3 -416 -6 -399 81 -399 84 0 87 5 87
161 l0 133 35 -20 c76 -45 193 -17 260 63 66 78 85 198 46 284 -59 131 -203
196 -302 138 -34 -20 -35 -20 -49 -1 -19 24 -95 33 -130 15z m275 -178 c36
-14 58 -68 44 -109 -12 -33 -53 -61 -89 -61 -33 0 -80 53 -80 90 0 22 9 41 29
61 31 31 53 35 96 19z"/>
<path d="M6640 5564 c-37 -15 -40 -33 -40 -269 0 -178 3 -235 14 -250 9 -12
30 -20 68 -23 47 -4 59 -1 77 17 19 19 21 32 21 164 1 153 5 168 54 187 20 7
39 7 67 -1 54 -17 82 -2 104 55 31 80 -4 126 -95 126 -29 0 -60 -9 -87 -24
-42 -24 -42 -24 -55 -4 -10 15 -27 21 -63 24 -28 2 -57 1 -65 -2z"/>
<path d="M7125 5563 c-43 -11 -45 -25 -45 -275 l0 -238 25 -16 c29 -19 118
-15 138 5 8 8 13 82 15 245 3 212 1 235 -15 255 -19 23 -77 35 -118 24z"/>
</g>
</svg>
