<?xml version="1.0" standalone="no"?>
<!DOCTYPE svg PUBLIC "-//W3C//DTD SVG 20010904//EN"
 "http://www.w3.org/TR/2001/REC-SVG-20010904/DTD/svg10.dtd">
<svg version="1.0" xmlns="http://www.w3.org/2000/svg"
 width="6500.000000pt" height="5000.000000pt" viewBox="0 0 6500.000000 5000.000000"
 preserveAspectRatio="xMidYMid meet">

<g transform="translate(0.000000,5000.000000) scale(0.100000,-0.100000)"
fill="#000000" stroke="none">
<path d="M35646 45107 c-21 -22 -26 -35 -26 -79 0 -78 23 -149 90 -284 115
-232 331 -525 527 -716 68 -66 177 -148 197 -148 10 0 116 -171 131 -212 5
-13 -7 -11 -78 13 -305 105 -890 147 -1110 79 -106 -33 -138 -80 -102 -150 51
-99 337 -202 725 -261 117 -18 190 -23 380 -23 217 -1 239 1 295 21 33 12 61
21 62 20 7 -8 202 -382 199 -384 -1 -2 -32 10 -67 26 -173 78 -563 141 -874
141 -304 0 -450 -52 -431 -154 28 -150 540 -300 1066 -313 231 -6 329 3 396
38 21 10 39 18 40 16 12 -13 144 -290 140 -294 -2 -3 -26 2 -53 11 -148 49
-389 76 -668 76 -339 0 -522 -37 -584 -116 -29 -37 -26 -67 11 -109 55 -64
175 -112 379 -154 342 -70 888 -74 1019 -6 16 8 32 15 35 15 3 0 20 -30 37
-67 17 -38 55 -119 84 -182 30 -63 53 -115 51 -117 -1 -2 -50 2 -107 7 -178
17 -499 -12 -749 -67 -330 -74 -477 -169 -421 -275 16 -29 97 -66 191 -86 115
-25 515 -25 704 0 167 23 344 62 420 94 106 44 90 58 184 -162 46 -107 81
-198 78 -201 -3 -3 -21 -1 -39 5 -71 23 -224 33 -393 27 -439 -15 -837 -109
-952 -224 -26 -25 -33 -41 -33 -71 0 -67 71 -109 231 -137 134 -23 527 -15
722 15 274 43 466 101 534 163 l22 21 11 -24 c36 -83 158 -384 156 -387 -2 -1
-21 4 -43 12 -207 73 -860 25 -1168 -86 -145 -52 -235 -118 -235 -172 0 -54
68 -103 182 -132 87 -22 429 -30 596 -15 330 31 597 99 713 182 17 12 32 20
33 18 6 -8 126 -320 126 -330 0 -5 -35 -9 -79 -9 -291 0 -863 -189 -1130 -374
-162 -111 -178 -219 -37 -257 58 -16 269 -5 391 21 341 72 719 218 881 341
l63 48 22 -57 c12 -31 43 -118 69 -192 27 -74 55 -153 63 -175 l14 -40 -111
-1 c-111 -1 -152 -7 -321 -45 -402 -93 -830 -291 -922 -428 -47 -70 -14 -139
75 -158 54 -12 215 -8 302 6 363 60 864 253 1006 386 20 19 39 34 40 32 7 -7
114 -319 114 -333 0 -10 -13 -14 -48 -14 -209 0 -760 -261 -1054 -499 -165
-133 -221 -256 -141 -308 54 -35 209 -19 378 39 301 103 709 333 868 489 38
38 71 68 72 67 6 -6 135 -414 140 -443 l6 -30 -63 -1 c-195 -4 -657 -210 -967
-432 -91 -65 -227 -194 -237 -224 -5 -17 -219 -18 -6704 -18 l-6699 0 -9 33
c-8 30 -5 35 52 93 144 145 223 360 233 630 18 477 -203 864 -604 1056 -160
77 -266 101 -453 102 -170 1 -243 -11 -400 -66 -164 -58 -318 -151 -485 -293
-183 -156 -314 -240 -626 -405 -107 -56 -230 -126 -274 -155 -96 -64 -193
-162 -229 -233 -29 -57 -56 -158 -56 -212 0 -34 -2 -36 -88 -77 -48 -22 -123
-65 -167 -93 -100 -66 -248 -212 -309 -307 l-47 -73 -2922 -3 c-3197 -4 -2953
1 -3177 -61 -260 -71 -485 -198 -680 -383 -279 -265 -441 -578 -495 -958 -14
-99 -15 -1178 -13 -11165 l3 -11055 23 -98 c52 -226 132 -414 249 -590 76
-115 232 -282 348 -372 205 -160 439 -264 725 -322 80 -16 520 -17 7316 -20
l7231 -3 6 -692 c4 -380 7 -1091 7 -1580 l0 -888 -1389 0 c-1489 0 -1463 1
-1591 -50 -89 -35 -170 -90 -240 -160 -78 -80 -131 -167 -167 -275 -23 -70
-26 -96 -26 -210 0 -114 3 -140 26 -210 62 -189 184 -328 362 -415 159 -77
-413 -70 5883 -70 4012 0 5666 3 5708 11 240 44 453 230 531 463 24 72 27 96
28 221 0 132 -2 145 -31 226 -75 211 -232 362 -452 438 l-77 26 -1422 3 -1423
2 0 1580 0 1580 7158 0 c4869 0 7192 3 7266 10 296 28 566 128 806 298 121 85
286 250 373 372 135 190 238 440 278 670 19 114 20 212 20 11155 0 8119 -3
11061 -11 11120 -99 699 -619 1240 -1325 1378 l-110 21 -4366 3 -4367 3 -6 25
c-12 47 -57 60 -196 59 -112 -1 -139 -5 -265 -40 l-140 -39 -457 -3 c-252 -1
-458 1 -458 5 0 5 37 9 83 9 147 3 412 101 698 260 361 201 572 401 529 503
-37 90 -222 77 -509 -35 -319 -125 -728 -378 -823 -510 -18 -25 -34 -42 -35
-37 -29 90 -123 416 -123 426 0 8 20 13 61 14 257 9 906 341 1126 577 95 101
117 170 68 216 -21 20 -39 25 -95 28 -138 8 -331 -53 -625 -198 -237 -116
-420 -235 -528 -340 l-78 -76 -64 201 c-36 111 -65 205 -65 208 0 4 17 7 38 7
183 0 696 236 982 451 252 190 313 350 143 374 -228 31 -917 -283 -1175 -536
l-67 -65 -55 163 c-31 91 -56 166 -56 169 0 2 15 4 33 4 193 0 788 403 1023
693 78 97 114 166 114 224 0 77 -72 102 -195 69 -194 -52 -533 -265 -803 -506
-100 -89 -232 -241 -232 -267 0 -7 -4 -13 -10 -13 -5 0 -10 4 -10 10 0 5 -34
103 -75 217 -41 113 -75 210 -75 214 0 5 6 6 14 3 25 -10 138 25 235 71 351
169 798 541 906 756 54 106 23 179 -75 179 -203 0 -692 -306 -997 -624 -61
-63 -119 -133 -129 -155 -11 -22 -21 -41 -24 -41 -6 0 -153 380 -148 384 1 2
34 10 72 19 197 48 580 298 847 554 227 218 301 387 189 433 -112 47 -446
-114 -790 -380 -129 -100 -313 -281 -363 -357 -22 -34 -42 -61 -43 -60 -13 15
-142 352 -137 357 5 3 26 12 47 19 175 60 544 390 765 686 196 261 236 434
105 452 -110 15 -335 -131 -598 -387 -201 -196 -362 -394 -406 -499 -7 -17
-15 -31 -19 -31 -5 0 -131 283 -156 350 -3 11 12 24 52 45 68 34 290 250 397
385 169 213 346 513 380 647 34 132 12 203 -65 203 -22 0 -56 -7 -76 -15 -205
-86 -649 -608 -782 -922 -34 -78 -19 -93 -126 139 -45 97 -71 164 -64 167 6 2
38 24 72 50 143 108 372 422 515 706 115 227 156 358 150 469 -3 58 -8 71 -28
88 -37 30 -98 20 -166 -27 -202 -140 -555 -646 -652 -938 l-30 -88 -90 183
-89 183 31 17 c18 9 61 47 97 85 200 213 456 718 519 1024 42 200 7 286 -106
265 -46 -9 -163 -120 -248 -235 -174 -238 -373 -640 -408 -824 -7 -37 -15 -67
-18 -67 -3 0 -47 78 -97 173 l-93 172 34 30 c102 92 211 339 295 671 58 229
75 344 75 529 1 151 -1 174 -19 209 -69 137 -172 80 -293 -163 -130 -259 -252
-701 -252 -909 0 -53 -2 -62 -13 -53 -22 18 -111 206 -157 331 -81 218 -162
365 -304 550 -217 283 -439 474 -574 496 -35 5 -44 3 -66 -19z m3419 -7467
c31 -107 57 -199 59 -205 2 -6 -32 -10 -88 -11 -71 -1 -110 -7 -181 -30 -87
-28 -97 -29 -320 -32 l-230 -2 130 68 c243 127 422 249 513 347 31 34 58 61
59 61 1 -1 27 -89 58 -196z m-15690 -110 c205 -17 371 -55 540 -124 37 -15 43
-23 67 -89 35 -93 193 -514 207 -550 l11 -27 -51 26 c-71 36 -166 54 -287 54
-86 0 -104 -3 -109 -16 -13 -34 11 -49 70 -46 77 5 200 -15 273 -44 74 -29 94
-30 101 -4 4 15 16 2 54 -61 27 -45 97 -148 156 -230 172 -238 259 -368 300
-451 l38 -78 12423 0 12422 0 0 -10170 0 -10170 -17300 0 -17300 0 0 10170 0
10170 2848 0 2848 0 11 59 c22 118 94 232 185 294 129 88 288 85 426 -10 47
-32 54 -34 70 -21 227 190 363 362 477 600 87 183 147 393 162 564 l6 74 71 0
c101 1 183 7 516 42 474 48 572 53 765 38z"/>
<path d="M23345 36764 c-184 -40 -425 -175 -425 -239 0 -30 21 -37 52 -17 139
94 177 116 242 142 41 17 108 37 148 45 40 9 89 19 108 23 29 6 35 11 35 32 0
23 -4 25 -45 27 -25 1 -76 -5 -115 -13z"/>
<path d="M24044 36500 c-86 -34 -62 -170 29 -170 97 0 129 123 42 164 -37 18
-41 18 -71 6z"/>
<path d="M23274 36400 c-29 -11 -54 -49 -54 -78 0 -85 91 -122 152 -62 26 27
30 36 25 67 -4 20 -14 45 -24 55 -22 21 -70 31 -99 18z"/>
<path d="M23727 36324 c-15 -15 -6 -55 33 -150 74 -182 159 -303 283 -401 36
-29 27 -46 -39 -79 -62 -30 -159 -42 -217 -26 -48 13 -67 7 -67 -24 0 -36 38
-46 155 -42 155 6 255 62 255 142 0 40 -18 65 -79 111 -90 65 -190 225 -253
405 -17 48 -28 66 -43 68 -12 2 -24 0 -28 -4z"/>
<path d="M20976 36085 c-52 -18 -90 -57 -117 -118 -20 -47 -21 -63 -16 -177 3
-69 12 -147 19 -175 12 -42 18 -50 40 -53 34 -4 39 13 22 84 -8 32 -17 98 -20
147 l-7 87 24 0 c67 0 199 -118 254 -226 32 -63 37 -68 66 -59 29 9 20 49 -28
129 -53 87 -140 168 -218 202 -36 16 -65 32 -65 37 0 19 51 56 91 67 47 13 96
8 176 -17 58 -17 85 -8 76 27 -13 48 -205 78 -297 45z"/>
<path d="M23575 35434 c-68 -35 -95 -82 -95 -161 1 -172 219 -328 375 -269
177 68 135 327 -68 422 -63 29 -165 33 -212 8z m155 -50 c69 -21 153 -101 170
-164 40 -148 -107 -223 -247 -126 -60 41 -103 101 -110 154 -10 74 12 116 74
137 49 18 49 18 113 -1z"/>
<path d="M32475 34334 c-52 -19 -93 -59 -118 -114 -20 -44 -21 -58 -19 -640 1
-327 2 -599 2 -604 0 -5 10 0 23 11 32 30 82 53 114 53 47 -1 108 -35 133 -74
37 -60 26 -116 -44 -223 -115 -175 -199 -349 -226 -465 -14 -61 -13 -773 1
-839 14 -65 83 -141 144 -158 54 -15 1404 -15 1457 -1 52 15 93 52 122 113 29
61 32 112 28 499 l-2 246 -50 -19 c-28 -10 -75 -19 -105 -19 -117 0 -182 62
-172 163 4 44 10 56 46 90 23 21 41 40 39 41 -52 34 -64 40 -71 38 -4 -1 -6 1
-5 5 1 5 -3 17 -9 28 -36 66 -14 157 48 194 l33 20 -26 10 c-13 5 -36 23 -50
40 -14 16 -27 28 -29 26 -2 -2 -5 19 -7 46 -3 57 18 109 56 139 25 20 25 21 6
35 -10 8 -22 15 -27 15 -4 0 -16 15 -27 33 -22 36 -26 102 -8 142 11 24 127
126 173 151 11 6 34 19 50 28 17 9 53 16 83 16 l52 0 0 408 c0 449 -1 451 -66
515 -66 66 -18 62 -799 64 -603 2 -716 0 -750 -13z"/>
<path d="M40336 34009 c-66 -10 -194 -43 -241 -63 -103 -44 -135 -60 -135 -68
0 -5 -4 -7 -9 -4 -9 6 -101 -49 -113 -68 -4 -6 -8 -7 -8 -3 0 14 -143 -107
-204 -173 -75 -82 -158 -200 -151 -218 2 -7 1 -10 -5 -7 -11 7 -79 -133 -108
-225 -97 -296 -75 -625 58 -895 53 -108 57 -115 110 -190 80 -113 251 -281
277 -271 7 3 12 1 10 -5 -1 -6 7 -16 18 -22 11 -7 22 -15 25 -18 12 -14 100
-60 100 -52 0 4 4 3 8 -3 4 -6 33 -23 64 -37 243 -111 524 -134 792 -66 87 22
208 68 217 82 3 5 10 9 15 9 24 1 92 43 87 52 -3 6 -3 8 2 4 9 -9 60 20 125
71 72 56 202 190 195 201 -4 6 -2 9 3 8 11 -3 53 49 74 92 7 14 19 30 27 36 8
7 11 16 6 24 -5 8 -4 11 2 7 6 -4 26 28 47 73 216 473 126 1008 -232 1374 -80
82 -219 189 -234 179 -6 -3 -8 -2 -5 4 13 21 -332 167 -351 148 -3 -2 -10 -1
-16 4 -33 27 -315 40 -450 20z m392 -222 c34 -8 62 -12 62 -10 0 3 6 1 13 -4
6 -6 37 -18 67 -28 30 -10 70 -26 87 -37 18 -11 38 -16 44 -12 7 4 9 3 6 -2
-3 -5 8 -17 24 -27 18 -10 28 -12 24 -4 -4 6 -1 5 7 -3 7 -9 40 -36 73 -62 33
-25 68 -55 79 -67 10 -11 23 -18 28 -15 4 3 7 0 6 -8 -2 -7 3 -12 10 -10 6 1
11 -2 10 -7 -2 -4 13 -28 32 -52 168 -209 249 -480 220 -735 -6 -54 -16 -117
-22 -139 -6 -22 -12 -49 -14 -60 -1 -11 -3 -21 -4 -22 -2 -2 -3 -6 -4 -10 -1
-5 -18 -42 -38 -84 -40 -86 -95 -170 -162 -249 -25 -29 -43 -58 -39 -63 3 -6
1 -7 -5 -3 -6 3 -31 -12 -57 -34 -64 -56 -118 -91 -205 -136 -41 -21 -77 -39
-80 -39 -75 -21 -100 -31 -100 -38 0 -4 -3 -6 -7 -4 -5 3 -42 -1 -83 -9 -90
-16 -251 -18 -339 -4 -35 6 -107 25 -160 43 -53 17 -102 31 -108 30 -7 0 -11
3 -8 7 3 5 -4 12 -16 15 -46 15 -199 128 -266 198 -40 41 -73 72 -73 68 0 -3
-16 21 -35 54 -146 252 -182 385 -172 628 4 99 11 153 30 217 14 46 23 88 21
92 -3 5 0 8 6 8 6 0 8 5 5 10 -3 6 -2 10 3 10 6 0 12 10 16 23 7 30 110 194
143 229 16 16 22 31 17 40 -4 7 -4 10 0 6 5 -4 23 7 40 23 89 80 181 144 273
190 56 28 103 50 105 48 2 -1 14 4 28 11 13 7 38 15 55 16 16 2 55 10 85 17
70 17 292 14 378 -6z m593 -340 c-10 -9 -11 -8 -5 6 3 10 9 15 12 12 3 -3 0
-11 -7 -18z m-1688 -1162 c-3 -9 -8 -14 -10 -11 -3 3 -2 9 2 15 9 16 15 13 8
-4z m1781 -294 c3 -5 -2 -15 -12 -22 -15 -12 -16 -12 -5 2 7 9 10 19 6 22 -3
4 -4 7 0 7 3 0 8 -4 11 -9z"/>
<path d="M40130 32801 l1 -600 34 21 c19 11 35 23 35 27 0 4 6 8 13 8 19 0
476 267 471 275 -3 4 1 5 9 2 7 -2 29 10 47 28 19 18 28 24 20 13 -14 -18 -13
-18 20 2 19 11 56 33 83 48 26 15 47 32 47 38 0 6 3 8 6 4 9 -9 64 21 64 35 0
6 3 8 6 5 7 -7 84 33 84 43 0 4 6 7 13 7 6 0 29 10 50 23 l38 23 -43 24 c-24
14 -48 26 -55 27 -7 1 -20 9 -30 17 -31 27 -110 69 -117 62 -3 -3 -6 -1 -6 5
0 13 -74 54 -84 47 -3 -3 -4 -2 -1 2 6 8 -227 143 -237 137 -4 -3 -8 -1 -8 5
0 11 -69 53 -84 51 -5 -1 -12 3 -15 8 -3 5 -30 24 -60 41 -45 27 -56 30 -70
19 -14 -11 -14 -11 -4 2 10 13 7 19 -20 33 -18 10 -36 17 -41 16 -5 0 -12 4
-15 9 -6 10 -46 35 -114 72 l-37 21 0 -600z"/>
<path d="M21055 33390 c-148 -22 -323 -94 -436 -177 -58 -43 -135 -123 -151
-159 -7 -15 -34 -28 -101 -48 -376 -111 -609 -250 -714 -426 -27 -44 -53 -133
-53 -178 0 -28 -15 -52 -83 -135 -382 -469 -703 -994 -961 -1570 -293 -654
-470 -1324 -532 -2007 -20 -221 -23 -679 -5 -885 51 -604 192 -1184 417 -1717
l46 -108 -36 -207 c-72 -419 -120 -783 -151 -1154 -20 -232 -42 -340 -148
-709 -124 -430 -141 -516 -141 -725 -1 -134 3 -184 17 -235 22 -80 56 -156 98
-218 l31 -46 -51 -261 c-28 -143 -78 -408 -111 -590 -33 -181 -63 -340 -65
-352 l-5 -23 -870 0 -870 0 0 -845 0 -845 10045 0 10045 0 0 845 0 845 -4885
0 -4885 0 0 58 c0 31 -9 293 -19 582 l-19 524 38 66 c96 165 156 389 196 733
10 83 17 270 21 503 l5 371 -38 8 c-84 15 -163 76 -227 173 -201 303 -222 838
-40 1014 21 20 76 57 123 83 46 25 86 47 87 49 8 8 -78 696 -148 1173 -21 149
-39 278 -39 287 0 13 4 13 38 -1 83 -35 335 -116 462 -148 850 -214 1688 -146
2520 206 1323 558 2529 1858 3463 3734 36 72 64 131 63 132 -1 1 -20 -3 -42
-9 -24 -8 -110 -13 -224 -13 -163 0 -195 3 -269 23 -287 78 -495 266 -621 560
-37 86 -90 255 -90 287 0 25 -13 18 -177 -98 -1072 -753 -1953 -1185 -2665
-1307 -543 -92 -1028 -13 -1483 242 -313 175 -536 350 -1175 923 -195 175
-401 357 -458 403 -95 79 -106 92 -149 174 -108 211 -332 372 -544 395 -60 6
-65 9 -108 57 -96 110 -300 304 -383 367 -295 220 -570 308 -845 270 -84 -12
-92 -12 -175 13 -72 21 -281 66 -306 66 -4 0 -7 -62 -7 -138 0 -122 -3 -143
-24 -189 -126 -281 -528 -194 -1198 259 l-131 90 -119 -7 c-152 -8 -266 -23
-319 -41 -40 -13 -44 -13 -89 13 -83 46 -207 62 -330 43z m-4117 -12300 c62
-38 63 -47 60 -495 -3 -392 -4 -404 -24 -432 -44 -59 -133 -63 -185 -7 l-24
26 -3 423 -3 423 27 32 c46 53 97 64 152 30z m420 0 c62 -38 63 -47 60 -495
-3 -392 -4 -404 -24 -432 -44 -59 -133 -63 -185 -7 l-24 26 -3 425 -3 425 40
39 c45 46 86 51 139 19z m17810 -380 c76 -46 68 -166 -14 -205 -28 -13 -326
-15 -2606 -15 l-2573 0 0 120 0 120 2580 0 c2561 0 2580 0 2613 -20z"/>
<path d="M40425 29254 c-137 -19 -191 -29 -260 -51 -96 -30 -216 -83 -211 -92
3 -4 -4 -7 -14 -8 -44 -4 -246 -155 -233 -176 3 -5 2 -7 -4 -4 -13 8 -76 -57
-66 -68 5 -4 3 -5 -3 -2 -12 7 -74 -55 -74 -73 0 -5 -4 -10 -8 -10 -24 0 -173
-273 -176 -324 0 -13 -4 -22 -8 -20 -3 2 -16 -35 -27 -83 -44 -189 -51 -311
-26 -478 16 -109 63 -275 77 -275 5 0 7 -4 4 -9 -7 -11 70 -167 95 -192 11
-11 17 -19 14 -19 -11 0 56 -90 112 -150 48 -52 58 -59 72 -48 14 11 14 11 3
-4 -11 -14 -6 -22 39 -60 28 -23 54 -43 57 -43 4 0 20 -12 37 -28 17 -15 36
-25 45 -22 8 4 11 3 7 -1 -23 -23 220 -131 388 -172 54 -13 114 -17 260 -17
167 0 200 3 274 23 103 28 193 59 200 69 3 5 15 9 26 11 36 6 146 73 139 84
-5 7 -1 9 9 5 44 -17 377 312 377 372 0 6 3 11 8 11 4 0 12 10 18 23 6 12 25
50 43 84 87 172 126 360 118 573 -10 268 -87 485 -246 695 -87 114 -250 263
-272 249 -7 -4 -9 -3 -5 4 11 17 -151 109 -280 157 -131 49 -394 85 -509 69z
m339 -243 c43 -11 83 -18 89 -14 6 3 7 1 3 -5 -4 -7 -1 -12 7 -12 20 0 186
-84 226 -114 19 -14 38 -23 43 -20 5 3 7 2 6 -3 -2 -4 1 -10 6 -13 15 -9 162
-164 194 -206 17 -22 36 -52 43 -67 6 -14 16 -24 21 -21 5 3 7 2 6 -3 -3 -10
54 -147 64 -151 4 -2 4 -10 1 -19 -5 -12 -3 -14 7 -8 9 5 11 4 6 -3 -6 -10 4
-64 22 -112 3 -8 7 -42 9 -75 3 -33 8 -63 12 -68 10 -10 -14 -229 -33 -307
-22 -85 -52 -159 -97 -243 -21 -37 -33 -64 -27 -61 5 4 -7 -13 -29 -36 -120
-132 -164 -176 -215 -215 -31 -23 -55 -45 -52 -49 2 -3 1 -4 -2 -1 -4 2 -39
-13 -78 -34 -39 -22 -88 -44 -109 -51 -28 -9 -37 -16 -32 -27 4 -12 2 -13 -7
-5 -13 11 -71 5 -64 -7 2 -3 -8 -6 -22 -7 -15 0 -67 -6 -117 -14 -112 -16
-253 -8 -361 21 -43 12 -87 22 -96 22 -10 1 -18 5 -18 10 0 4 -8 7 -17 6 -31
-3 -44 1 -39 10 3 4 -13 17 -37 27 -63 29 -155 90 -223 150 -34 29 -64 51 -68
49 -3 -3 -4 -2 -2 1 3 3 0 11 -5 18 -115 136 -186 268 -231 431 -28 100 -35
334 -14 434 8 40 13 78 10 82 -3 5 0 9 5 9 6 0 11 9 11 20 0 11 4 28 9 38 21
39 80 172 76 172 -2 0 5 10 15 23 54 63 90 119 84 129 -4 6 -3 8 3 5 6 -4 38
23 72 58 35 36 64 65 66 65 1 0 33 21 71 46 122 82 245 133 383 159 107 20
321 13 425 -14z"/>
<path d="M40130 28034 c1 -591 1 -594 21 -584 11 6 17 15 14 20 -3 6 1 7 9 4
15 -6 106 42 106 55 0 4 6 8 13 8 21 0 437 245 431 254 -3 5 3 6 12 2 13 -5
15 -3 9 7 -5 9 -4 11 4 6 12 -8 54 15 81 44 10 11 12 11 5 1 -7 -10 1 -9 25 6
19 11 57 33 83 48 35 20 46 32 42 44 -5 12 -3 13 6 4 12 -12 59 2 59 19 0 4 6
8 13 8 6 0 34 13 60 29 l48 28 -151 87 c-84 47 -157 88 -163 89 -7 1 -15 5
-18 10 -7 9 -400 238 -414 240 -5 1 -12 5 -15 8 -3 4 -29 21 -59 38 -45 27
-56 30 -70 19 -14 -11 -14 -11 -4 2 10 13 7 19 -20 33 -18 10 -36 18 -42 19
-5 1 -18 10 -28 19 -10 9 -27 19 -38 22 -19 5 -19 -7 -19 -589z"/>
<path d="M40306 24574 c-44 -8 -85 -19 -91 -24 -7 -5 -14 -7 -17 -5 -15 15
-333 -128 -323 -145 2 -4 -2 -7 -9 -7 -40 0 -292 -224 -281 -250 2 -8 1 -11
-4 -8 -14 8 -93 -107 -146 -211 -123 -241 -161 -510 -112 -779 50 -268 191
-512 405 -696 74 -65 142 -110 153 -103 7 4 9 3 6 -3 -11 -18 244 -140 265
-127 4 3 8 1 8 -4 0 -14 189 -51 298 -58 137 -9 422 30 422 58 0 5 4 6 10 3
12 -7 182 62 196 80 6 8 13 12 16 9 13 -12 200 127 282 210 106 109 116 120
116 132 1 5 14 24 30 43 16 19 27 38 24 43 -3 4 -1 8 5 8 14 0 95 170 124 260
73 226 76 499 6 725 -29 97 -99 246 -112 238 -6 -3 -7 -1 -3 5 19 31 -185 276
-308 371 -74 57 -167 111 -179 104 -6 -3 -7 -1 -4 4 6 9 -65 44 -87 42 -5 0
-12 4 -15 9 -9 15 -162 60 -258 77 -106 19 -311 18 -417 -1z m334 -205 c52 -7
104 -12 115 -13 11 -1 22 -3 25 -6 3 -3 30 -14 60 -24 30 -11 77 -30 103 -43
26 -13 53 -21 60 -17 7 4 9 4 5 -1 -8 -8 132 -102 145 -97 5 1 6 -2 3 -7 -7
-10 44 -47 59 -42 6 1 7 -1 3 -5 -4 -4 15 -32 43 -62 57 -62 115 -146 149
-212 12 -25 27 -51 33 -59 6 -7 12 -18 13 -25 1 -6 14 -51 28 -101 15 -49 29
-122 33 -162 3 -40 9 -73 13 -73 8 0 -14 -209 -29 -281 -6 -27 -25 -85 -42
-129 -16 -44 -30 -82 -29 -86 1 -4 -2 -10 -7 -13 -4 -3 -32 -42 -61 -87 -29
-45 -64 -91 -77 -104 -13 -13 -22 -26 -20 -30 3 -5 -2 -11 -11 -14 -8 -3 -12
-11 -8 -17 4 -7 3 -9 -3 -6 -5 3 -38 -18 -73 -48 -111 -94 -251 -166 -397
-207 -67 -19 -103 -22 -253 -22 -205 1 -273 15 -432 92 -53 26 -94 43 -91 37
2 -5 -4 -1 -14 11 -29 33 -119 94 -127 86 -4 -4 -6 -2 -4 4 2 7 -26 43 -62 80
-167 175 -256 387 -267 633 -10 212 32 391 131 559 134 228 366 404 614 466
50 12 94 25 96 27 11 10 189 9 276 -2z"/>
<path d="M40130 23371 l0 -601 44 27 c25 15 42 31 39 37 -3 5 -1 6 5 2 16 -10
54 12 46 26 -4 7 -3 8 5 4 11 -7 669 365 682 386 3 5 8 9 10 8 10 -5 58 24 53
31 -3 5 1 6 8 4 8 -3 23 3 33 13 11 10 23 18 26 18 4 -1 26 10 49 23 l42 23
-77 44 c-42 24 -82 41 -88 37 -5 -3 -7 -2 -4 4 8 12 -71 55 -85 46 -7 -3 -8
-1 -4 5 7 12 -66 55 -78 47 -3 -3 -4 -2 -1 2 3 3 -12 16 -32 28 -21 12 -162
93 -313 180 -151 87 -294 169 -317 183 l-43 24 0 -601z"/>
<path d="M40420 19874 c-14 -2 -59 -9 -100 -15 -171 -25 -373 -110 -522 -221
-129 -96 -299 -282 -282 -310 4 -6 3 -8 -3 -5 -14 9 -56 -61 -47 -75 4 -6 2
-8 -3 -5 -14 9 -86 -148 -113 -243 -11 -41 -27 -119 -35 -172 -22 -145 -20
-228 10 -408 13 -78 59 -211 106 -305 53 -109 144 -239 159 -230 5 3 7 0 5 -7
-10 -25 215 -225 237 -212 6 4 8 3 5 -3 -14 -22 178 -125 311 -167 179 -56
411 -72 583 -41 91 17 269 72 269 84 0 4 9 7 20 8 58 5 267 150 375 262 78 81
188 228 179 242 -3 5 -1 9 4 9 13 0 69 119 102 218 62 187 77 412 41 602 -11
55 -23 106 -28 113 -4 6 -9 21 -10 32 -13 85 -172 375 -206 375 -5 0 -8 3 -4
6 13 13 -128 157 -228 233 -141 106 -387 207 -554 226 -70 9 -243 14 -271 9z
m345 -244 c85 -20 270 -98 308 -130 10 -8 20 -14 22 -13 3 2 15 -7 28 -20 12
-12 45 -42 72 -68 54 -48 145 -147 145 -155 0 -15 48 -73 55 -66 5 4 5 2 2 -5
-10 -16 3 -44 17 -36 6 3 8 3 5 -1 -4 -4 8 -42 26 -84 18 -43 36 -92 40 -110
3 -18 10 -30 13 -28 4 2 7 -8 8 -22 0 -15 6 -73 13 -130 7 -58 9 -135 6 -175
-8 -82 -41 -234 -62 -285 -8 -19 -12 -41 -9 -49 3 -8 1 -11 -4 -8 -5 3 -21
-18 -36 -47 -106 -210 -290 -380 -509 -469 -42 -17 -69 -34 -67 -41 3 -10 1
-10 -9 -1 -8 8 -19 9 -37 2 -39 -15 -211 -41 -262 -40 -203 6 -419 71 -566
172 -23 15 -45 25 -49 21 -5 -4 -5 -2 -2 4 6 11 -19 29 -36 26 -4 -1 -6 1 -5
5 1 5 -33 43 -75 85 -42 42 -77 82 -77 88 0 6 -4 9 -8 6 -5 -3 -9 0 -9 7 0 14
-73 131 -85 135 -4 2 -6 8 -2 13 3 5 0 9 -5 9 -6 0 -10 3 -9 8 1 4 -10 43 -25
87 -61 182 -74 380 -36 555 12 52 21 103 22 113 1 9 5 17 10 17 4 0 6 4 3 9
-4 5 -3 11 1 13 5 1 19 28 33 58 68 149 209 314 350 410 88 60 210 114 315
141 96 24 305 39 365 27 19 -4 76 -17 125 -28z m515 -226 c0 -8 -19 -13 -24
-6 -3 5 1 9 9 9 8 0 15 -2 15 -3z"/>
<path d="M40130 18654 c0 -327 3 -593 8 -591 74 40 198 114 200 119 2 5 8 8
14 8 6 0 47 22 92 48 45 27 100 59 123 72 23 13 39 28 36 33 -3 6 -1 7 5 3 11
-7 207 99 245 132 10 9 23 17 30 18 7 1 74 38 151 82 l138 80 -30 16 c-16 8
-32 12 -36 9 -3 -4 -6 -1 -6 4 0 16 -158 105 -172 97 -6 -4 -8 -3 -5 3 6 10
-210 139 -230 137 -7 -1 -10 2 -7 7 5 8 -2 11 -22 8 -3 0 -11 6 -17 14 -21 25
-347 208 -359 201 -6 -4 -8 -3 -5 3 8 12 -120 86 -135 77 -7 -4 -8 -3 -4 4 4
7 2 12 -3 12 -8 0 -11 -183 -11 -596z"/>
</g>
</svg>
